STARTFONT 2.1
COMMENT
COMMENT Converted from OpenType font "AnotherMansTreasureMIII64C.ttf" by "otf2bdf 3.0".
COMMENT
FONT -FreeType-Another Mans Treasure MIII 64C-Medium-R-Normal--12-40-220-220-P-38-ISO10646-1
SIZE 4 220 220
FONTBOUNDINGBOX 5 12 0 -5
STARTPROPERTIES 19
FOUNDRY "FreeType"
FAMILY_NAME "Another Mans Treasure MIII 64C"
WEIGHT_NAME "Medium"
SLANT "R"
SETWIDTH_NAME "Normal"
ADD_STYLE_NAME ""
PIXEL_SIZE 12
POINT_SIZE 40
RESOLUTION_X 220
RESOLUTION_Y 220
SPACING "P"
AVERAGE_WIDTH 38
CHARSET_REGISTRY "ISO10646"
CHARSET_ENCODING "1"
FONT_ASCENT 7
FONT_DESCENT 5
COPYRIGHT "Created by Rebecca Bettencourt with FontForge 2.0 (http://fontforge.sf.net)"
_OTF_FONTFILE "AnotherMansTreasureMIII64C.ttf"
_OTF_PSNAME "AnotherMansTreasureMIII64C"
ENDPROPERTIES
CHARS 384
STARTCHAR E000
ENCODING 57344
SWIDTH 327 0
DWIDTH 4 0
BBX 0 0 0 0
BITMAP
ENDCHAR
STARTCHAR E001
ENCODING 57345
SWIDTH 327 0
DWIDTH 4 0
BBX 4 7 0 0
BITMAP
20
50
40
E0
40
50
E0
ENDCHAR
STARTCHAR E002
ENCODING 57346
SWIDTH 327 0
DWIDTH 4 0
BBX 1 7 2 0
BITMAP
80
80
80
80
80
80
80
ENDCHAR
STARTCHAR E003
ENCODING 57347
SWIDTH 327 0
DWIDTH 4 0
BBX 4 7 0 0
BITMAP
20
20
60
90
F0
80
60
ENDCHAR
STARTCHAR E004
ENCODING 57348
SWIDTH 327 0
DWIDTH 4 0
BBX 4 7 0 0
BITMAP
20
00
90
90
90
90
60
ENDCHAR
STARTCHAR E005
ENCODING 57349
SWIDTH 327 0
DWIDTH 4 0
BBX 3 7 1 0
BITMAP
40
00
40
00
A0
E0
A0
ENDCHAR
STARTCHAR E006
ENCODING 57350
SWIDTH 327 0
DWIDTH 4 0
BBX 4 3 0 1
BITMAP
F0
10
10
ENDCHAR
STARTCHAR E007
ENCODING 57351
SWIDTH 327 0
DWIDTH 4 0
BBX 3 5 1 2
BITMAP
40
A0
A0
A0
40
ENDCHAR
STARTCHAR E008
ENCODING 57352
SWIDTH 327 0
DWIDTH 4 0
BBX 4 7 0 0
BITMAP
30
50
70
50
50
50
A0
ENDCHAR
STARTCHAR E009
ENCODING 57353
SWIDTH 327 0
DWIDTH 4 0
BBX 4 7 0 0
BITMAP
40
40
90
90
90
B0
50
ENDCHAR
STARTCHAR E00A
ENCODING 57354
SWIDTH 327 0
DWIDTH 4 0
BBX 4 7 0 0
BITMAP
50
A0
00
20
50
90
10
ENDCHAR
STARTCHAR E00B
ENCODING 57355
SWIDTH 327 0
DWIDTH 4 0
BBX 2 3 2 4
BITMAP
80
00
40
ENDCHAR
STARTCHAR E00C
ENCODING 57356
SWIDTH 327 0
DWIDTH 4 0
BBX 4 7 0 0
BITMAP
40
00
40
20
60
A0
50
ENDCHAR
STARTCHAR E00D
ENCODING 57357
SWIDTH 327 0
DWIDTH 4 0
BBX 4 7 0 0
BITMAP
70
F0
A0
80
E0
A0
A0
ENDCHAR
STARTCHAR E00E
ENCODING 57358
SWIDTH 327 0
DWIDTH 4 0
BBX 3 5 1 2
BITMAP
40
00
A0
E0
A0
ENDCHAR
STARTCHAR E00F
ENCODING 57359
SWIDTH 327 0
DWIDTH 4 0
BBX 4 7 0 0
BITMAP
50
A0
20
60
50
70
50
ENDCHAR
STARTCHAR E010
ENCODING 57360
SWIDTH 327 0
DWIDTH 4 0
BBX 4 7 0 0
BITMAP
50
A0
50
50
70
50
50
ENDCHAR
STARTCHAR E011
ENCODING 57361
SWIDTH 327 0
DWIDTH 4 0
BBX 3 5 1 1
BITMAP
40
A0
A0
A0
40
ENDCHAR
STARTCHAR E012
ENCODING 57362
SWIDTH 327 0
DWIDTH 4 0
BBX 4 7 0 0
BITMAP
30
50
50
70
50
40
A0
ENDCHAR
STARTCHAR E013
ENCODING 57363
SWIDTH 327 0
DWIDTH 4 0
BBX 4 7 0 0
BITMAP
50
A0
00
60
90
90
60
ENDCHAR
STARTCHAR E014
ENCODING 57364
SWIDTH 327 0
DWIDTH 4 0
BBX 4 7 0 0
BITMAP
60
90
90
60
90
90
E0
ENDCHAR
STARTCHAR E015
ENCODING 57365
SWIDTH 327 0
DWIDTH 4 0
BBX 4 7 0 0
BITMAP
20
00
90
90
90
B0
50
ENDCHAR
STARTCHAR E016
ENCODING 57366
SWIDTH 327 0
DWIDTH 4 0
BBX 4 7 0 0
BITMAP
50
A0
00
40
20
20
40
ENDCHAR
STARTCHAR E017
ENCODING 57367
SWIDTH 327 0
DWIDTH 4 0
BBX 3 7 1 0
BITMAP
40
E0
60
40
C0
E0
40
ENDCHAR
STARTCHAR E018
ENCODING 57368
SWIDTH 327 0
DWIDTH 4 0
BBX 4 5 0 2
BITMAP
40
20
60
A0
50
ENDCHAR
STARTCHAR E019
ENCODING 57369
SWIDTH 327 0
DWIDTH 4 0
BBX 4 6 0 1
BITMAP
40
40
20
60
A0
50
ENDCHAR
STARTCHAR E01A
ENCODING 57370
SWIDTH 327 0
DWIDTH 4 0
BBX 4 7 0 0
BITMAP
40
00
40
20
60
A0
50
ENDCHAR
STARTCHAR E01B
ENCODING 57371
SWIDTH 327 0
DWIDTH 4 0
BBX 4 7 0 0
BITMAP
60
80
E0
90
70
10
60
ENDCHAR
STARTCHAR E01C
ENCODING 57372
SWIDTH 327 0
DWIDTH 4 0
BBX 3 7 1 0
BITMAP
40
40
E0
80
E0
80
E0
ENDCHAR
STARTCHAR E01D
ENCODING 57373
SWIDTH 327 0
DWIDTH 4 0
BBX 3 7 1 0
BITMAP
40
60
C0
A0
C0
C0
A0
ENDCHAR
STARTCHAR E01E
ENCODING 57374
SWIDTH 327 0
DWIDTH 4 0
BBX 3 7 1 -1
BITMAP
40
A0
80
80
A0
40
40
ENDCHAR
STARTCHAR E01F
ENCODING 57375
SWIDTH 327 0
DWIDTH 4 0
BBX 4 2 0 3
BITMAP
50
A0
ENDCHAR
STARTCHAR E020
ENCODING 57376
SWIDTH 327 0
DWIDTH 4 0
BBX 0 0 0 0
BITMAP
ENDCHAR
STARTCHAR E021
ENCODING 57377
SWIDTH 327 0
DWIDTH 4 0
BBX 1 7 2 0
BITMAP
80
80
80
80
80
00
80
ENDCHAR
STARTCHAR E022
ENCODING 57378
SWIDTH 327 0
DWIDTH 4 0
BBX 2 3 1 4
BITMAP
C0
C0
C0
ENDCHAR
STARTCHAR E023
ENCODING 57379
SWIDTH 327 0
DWIDTH 4 0
BBX 3 7 1 0
BITMAP
A0
A0
E0
A0
E0
A0
A0
ENDCHAR
STARTCHAR E024
ENCODING 57380
SWIDTH 327 0
DWIDTH 4 0
BBX 3 7 1 0
BITMAP
40
60
C0
40
60
C0
40
ENDCHAR
STARTCHAR E025
ENCODING 57381
SWIDTH 327 0
DWIDTH 4 0
BBX 3 6 1 0
BITMAP
80
A0
40
40
A0
A0
ENDCHAR
STARTCHAR E026
ENCODING 57382
SWIDTH 327 0
DWIDTH 4 0
BBX 4 7 0 0
BITMAP
40
80
80
40
90
A0
50
ENDCHAR
STARTCHAR E027
ENCODING 57383
SWIDTH 327 0
DWIDTH 4 0
BBX 2 3 1 4
BITMAP
40
40
80
ENDCHAR
STARTCHAR E028
ENCODING 57384
SWIDTH 327 0
DWIDTH 4 0
BBX 2 7 1 0
BITMAP
40
40
80
80
80
40
40
ENDCHAR
STARTCHAR E029
ENCODING 57385
SWIDTH 327 0
DWIDTH 4 0
BBX 2 7 1 0
BITMAP
80
00
40
40
40
00
80
ENDCHAR
STARTCHAR E02A
ENCODING 57386
SWIDTH 327 0
DWIDTH 4 0
BBX 3 7 1 0
BITMAP
40
E0
40
E0
40
E0
40
ENDCHAR
STARTCHAR E02B
ENCODING 57387
SWIDTH 327 0
DWIDTH 4 0
BBX 3 5 1 1
BITMAP
40
40
E0
40
40
ENDCHAR
STARTCHAR E02C
ENCODING 57388
SWIDTH 327 0
DWIDTH 4 0
BBX 2 3 1 -1
BITMAP
40
40
80
ENDCHAR
STARTCHAR E02D
ENCODING 57389
SWIDTH 327 0
DWIDTH 4 0
BBX 3 1 1 3
BITMAP
E0
ENDCHAR
STARTCHAR E02E
ENCODING 57390
SWIDTH 327 0
DWIDTH 4 0
BBX 1 1 2 0
BITMAP
80
ENDCHAR
STARTCHAR E02F
ENCODING 57391
SWIDTH 327 0
DWIDTH 4 0
BBX 4 6 0 0
BITMAP
10
20
20
40
40
80
ENDCHAR
STARTCHAR E030
ENCODING 57392
SWIDTH 327 0
DWIDTH 4 0
BBX 4 7 0 0
BITMAP
60
90
B0
90
D0
90
60
ENDCHAR
STARTCHAR E031
ENCODING 57393
SWIDTH 327 0
DWIDTH 4 0
BBX 3 7 1 0
BITMAP
40
40
C0
40
40
40
E0
ENDCHAR
STARTCHAR E032
ENCODING 57394
SWIDTH 327 0
DWIDTH 4 0
BBX 4 7 0 0
BITMAP
60
90
10
20
40
80
F0
ENDCHAR
STARTCHAR E033
ENCODING 57395
SWIDTH 327 0
DWIDTH 4 0
BBX 4 7 0 0
BITMAP
60
90
10
60
10
90
60
ENDCHAR
STARTCHAR E034
ENCODING 57396
SWIDTH 327 0
DWIDTH 4 0
BBX 3 7 1 0
BITMAP
40
40
40
C0
E0
40
40
ENDCHAR
STARTCHAR E035
ENCODING 57397
SWIDTH 327 0
DWIDTH 4 0
BBX 4 7 0 0
BITMAP
F0
80
C0
20
10
A0
40
ENDCHAR
STARTCHAR E036
ENCODING 57398
SWIDTH 327 0
DWIDTH 4 0
BBX 4 7 0 0
BITMAP
60
40
80
E0
90
90
60
ENDCHAR
STARTCHAR E037
ENCODING 57399
SWIDTH 327 0
DWIDTH 4 0
BBX 4 7 0 0
BITMAP
F0
90
20
20
40
40
40
ENDCHAR
STARTCHAR E038
ENCODING 57400
SWIDTH 327 0
DWIDTH 4 0
BBX 4 7 0 0
BITMAP
60
90
90
60
90
90
60
ENDCHAR
STARTCHAR E039
ENCODING 57401
SWIDTH 327 0
DWIDTH 4 0
BBX 4 7 0 0
BITMAP
60
90
90
70
10
20
40
ENDCHAR
STARTCHAR E03A
ENCODING 57402
SWIDTH 327 0
DWIDTH 4 0
BBX 1 4 2 1
BITMAP
80
00
00
80
ENDCHAR
STARTCHAR E03B
ENCODING 57403
SWIDTH 327 0
DWIDTH 4 0
BBX 2 6 1 -1
BITMAP
40
00
00
40
40
80
ENDCHAR
STARTCHAR E03C
ENCODING 57404
SWIDTH 327 0
DWIDTH 4 0
BBX 3 7 1 0
BITMAP
20
40
40
80
40
40
20
ENDCHAR
STARTCHAR E03D
ENCODING 57405
SWIDTH 327 0
DWIDTH 4 0
BBX 3 3 1 2
BITMAP
E0
00
E0
ENDCHAR
STARTCHAR E03E
ENCODING 57406
SWIDTH 327 0
DWIDTH 4 0
BBX 3 7 1 0
BITMAP
80
C0
40
60
40
C0
80
ENDCHAR
STARTCHAR E03F
ENCODING 57407
SWIDTH 327 0
DWIDTH 4 0
BBX 4 7 0 0
BITMAP
60
90
10
20
40
00
40
ENDCHAR
STARTCHAR E040
ENCODING 57408
SWIDTH 327 0
DWIDTH 4 0
BBX 4 7 0 0
BITMAP
60
50
90
F0
A0
40
70
ENDCHAR
STARTCHAR E041
ENCODING 57409
SWIDTH 327 0
DWIDTH 4 0
BBX 4 7 0 0
BITMAP
40
20
90
F0
90
90
90
ENDCHAR
STARTCHAR E042
ENCODING 57410
SWIDTH 327 0
DWIDTH 4 0
BBX 4 7 0 0
BITMAP
E0
90
90
60
90
90
E0
ENDCHAR
STARTCHAR E043
ENCODING 57411
SWIDTH 327 0
DWIDTH 4 0
BBX 4 7 0 0
BITMAP
60
50
80
80
80
50
60
ENDCHAR
STARTCHAR E044
ENCODING 57412
SWIDTH 327 0
DWIDTH 4 0
BBX 3 7 1 0
BITMAP
C0
A0
A0
A0
A0
A0
C0
ENDCHAR
STARTCHAR E045
ENCODING 57413
SWIDTH 327 0
DWIDTH 4 0
BBX 4 7 0 0
BITMAP
F0
80
80
E0
80
80
F0
ENDCHAR
STARTCHAR E046
ENCODING 57414
SWIDTH 327 0
DWIDTH 4 0
BBX 4 7 0 0
BITMAP
F0
80
80
E0
80
80
80
ENDCHAR
STARTCHAR E047
ENCODING 57415
SWIDTH 327 0
DWIDTH 4 0
BBX 4 7 0 0
BITMAP
60
10
80
B0
90
10
60
ENDCHAR
STARTCHAR E048
ENCODING 57416
SWIDTH 327 0
DWIDTH 4 0
BBX 4 7 0 0
BITMAP
90
90
90
F0
90
90
90
ENDCHAR
STARTCHAR E049
ENCODING 57417
SWIDTH 327 0
DWIDTH 4 0
BBX 2 7 1 0
BITMAP
C0
40
40
40
40
40
C0
ENDCHAR
STARTCHAR E04A
ENCODING 57418
SWIDTH 327 0
DWIDTH 4 0
BBX 4 7 0 0
BITMAP
30
20
20
20
20
A0
40
ENDCHAR
STARTCHAR E04B
ENCODING 57419
SWIDTH 327 0
DWIDTH 4 0
BBX 4 7 0 0
BITMAP
90
80
A0
C0
A0
80
90
ENDCHAR
STARTCHAR E04C
ENCODING 57420
SWIDTH 327 0
DWIDTH 4 0
BBX 4 7 0 0
BITMAP
80
80
80
80
80
80
F0
ENDCHAR
STARTCHAR E04D
ENCODING 57421
SWIDTH 327 0
DWIDTH 4 0
BBX 4 7 0 0
BITMAP
90
F0
D0
90
90
90
90
ENDCHAR
STARTCHAR E04E
ENCODING 57422
SWIDTH 327 0
DWIDTH 4 0
BBX 4 7 0 0
BITMAP
90
D0
90
B0
90
90
90
ENDCHAR
STARTCHAR E04F
ENCODING 57423
SWIDTH 327 0
DWIDTH 4 0
BBX 4 7 0 0
BITMAP
60
90
90
90
90
90
60
ENDCHAR
STARTCHAR E050
ENCODING 57424
SWIDTH 327 0
DWIDTH 4 0
BBX 4 7 0 0
BITMAP
E0
90
90
E0
80
80
80
ENDCHAR
STARTCHAR E051
ENCODING 57425
SWIDTH 327 0
DWIDTH 4 0
BBX 4 7 0 0
BITMAP
60
90
90
90
B0
80
70
ENDCHAR
STARTCHAR E052
ENCODING 57426
SWIDTH 327 0
DWIDTH 4 0
BBX 4 7 0 0
BITMAP
E0
90
90
E0
A0
80
90
ENDCHAR
STARTCHAR E053
ENCODING 57427
SWIDTH 327 0
DWIDTH 4 0
BBX 4 7 0 0
BITMAP
60
90
80
60
10
90
60
ENDCHAR
STARTCHAR E054
ENCODING 57428
SWIDTH 327 0
DWIDTH 4 0
BBX 3 7 1 0
BITMAP
E0
40
40
40
40
40
40
ENDCHAR
STARTCHAR E055
ENCODING 57429
SWIDTH 327 0
DWIDTH 4 0
BBX 4 7 0 0
BITMAP
90
90
90
90
90
90
60
ENDCHAR
STARTCHAR E056
ENCODING 57430
SWIDTH 327 0
DWIDTH 4 0
BBX 4 7 0 0
BITMAP
90
90
90
20
20
40
40
ENDCHAR
STARTCHAR E057
ENCODING 57431
SWIDTH 327 0
DWIDTH 4 0
BBX 4 7 0 0
BITMAP
90
90
90
D0
90
F0
90
ENDCHAR
STARTCHAR E058
ENCODING 57432
SWIDTH 327 0
DWIDTH 4 0
BBX 4 7 0 0
BITMAP
90
90
20
40
20
90
90
ENDCHAR
STARTCHAR E059
ENCODING 57433
SWIDTH 327 0
DWIDTH 4 0
BBX 3 7 1 0
BITMAP
A0
A0
A0
40
40
40
40
ENDCHAR
STARTCHAR E05A
ENCODING 57434
SWIDTH 327 0
DWIDTH 4 0
BBX 4 7 0 0
BITMAP
F0
10
20
40
00
80
F0
ENDCHAR
STARTCHAR E05B
ENCODING 57435
SWIDTH 327 0
DWIDTH 4 0
BBX 2 7 1 0
BITMAP
C0
80
80
80
80
80
C0
ENDCHAR
STARTCHAR E05C
ENCODING 57436
SWIDTH 327 0
DWIDTH 4 0
BBX 4 6 0 0
BITMAP
80
40
40
20
00
10
ENDCHAR
STARTCHAR E05D
ENCODING 57437
SWIDTH 327 0
DWIDTH 4 0
BBX 2 7 1 0
BITMAP
C0
40
40
40
40
40
C0
ENDCHAR
STARTCHAR E05E
ENCODING 57438
SWIDTH 327 0
DWIDTH 4 0
BBX 3 3 1 4
BITMAP
40
00
A0
ENDCHAR
STARTCHAR E05F
ENCODING 57439
SWIDTH 327 0
DWIDTH 4 0
BBX 4 1 0 -1
BITMAP
F0
ENDCHAR
STARTCHAR E060
ENCODING 57440
SWIDTH 327 0
DWIDTH 4 0
BBX 2 3 1 4
BITMAP
80
40
40
ENDCHAR
STARTCHAR E061
ENCODING 57441
SWIDTH 327 0
DWIDTH 4 0
BBX 4 5 0 0
BITMAP
40
20
60
A0
50
ENDCHAR
STARTCHAR E062
ENCODING 57442
SWIDTH 327 0
DWIDTH 4 0
BBX 4 7 0 0
BITMAP
80
80
A0
D0
90
D0
A0
ENDCHAR
STARTCHAR E063
ENCODING 57443
SWIDTH 327 0
DWIDTH 4 0
BBX 4 5 0 0
BITMAP
60
90
80
90
60
ENDCHAR
STARTCHAR E064
ENCODING 57444
SWIDTH 327 0
DWIDTH 4 0
BBX 4 7 0 0
BITMAP
10
10
50
B0
90
B0
50
ENDCHAR
STARTCHAR E065
ENCODING 57445
SWIDTH 327 0
DWIDTH 4 0
BBX 4 5 0 0
BITMAP
60
90
F0
80
60
ENDCHAR
STARTCHAR E066
ENCODING 57446
SWIDTH 327 0
DWIDTH 4 0
BBX 4 7 0 0
BITMAP
20
50
40
E0
40
40
40
ENDCHAR
STARTCHAR E067
ENCODING 57447
SWIDTH 327 0
DWIDTH 4 0
BBX 4 6 0 -1
BITMAP
50
B0
B0
50
10
60
ENDCHAR
STARTCHAR E068
ENCODING 57448
SWIDTH 327 0
DWIDTH 4 0
BBX 4 7 0 0
BITMAP
80
80
A0
D0
90
90
90
ENDCHAR
STARTCHAR E069
ENCODING 57449
SWIDTH 327 0
DWIDTH 4 0
BBX 2 7 1 0
BITMAP
40
00
C0
40
40
40
C0
ENDCHAR
STARTCHAR E06A
ENCODING 57450
SWIDTH 327 0
DWIDTH 4 0
BBX 3 8 0 -1
BITMAP
20
00
20
20
20
20
A0
40
ENDCHAR
STARTCHAR E06B
ENCODING 57451
SWIDTH 327 0
DWIDTH 4 0
BBX 3 7 0 0
BITMAP
80
80
80
A0
80
E0
A0
ENDCHAR
STARTCHAR E06C
ENCODING 57452
SWIDTH 327 0
DWIDTH 4 0
BBX 2 7 1 0
BITMAP
C0
40
40
40
40
40
C0
ENDCHAR
STARTCHAR E06D
ENCODING 57453
SWIDTH 327 0
DWIDTH 4 0
BBX 4 5 0 0
BITMAP
D0
B0
B0
B0
B0
ENDCHAR
STARTCHAR E06E
ENCODING 57454
SWIDTH 327 0
DWIDTH 4 0
BBX 4 5 0 0
BITMAP
A0
D0
90
90
90
ENDCHAR
STARTCHAR E06F
ENCODING 57455
SWIDTH 327 0
DWIDTH 4 0
BBX 4 5 0 0
BITMAP
60
90
90
90
60
ENDCHAR
STARTCHAR E070
ENCODING 57456
SWIDTH 327 0
DWIDTH 4 0
BBX 4 6 0 -1
BITMAP
A0
D0
D0
A0
80
80
ENDCHAR
STARTCHAR E071
ENCODING 57457
SWIDTH 327 0
DWIDTH 4 0
BBX 4 6 0 -1
BITMAP
50
B0
B0
50
10
10
ENDCHAR
STARTCHAR E072
ENCODING 57458
SWIDTH 327 0
DWIDTH 4 0
BBX 4 5 0 0
BITMAP
A0
D0
80
80
80
ENDCHAR
STARTCHAR E073
ENCODING 57459
SWIDTH 327 0
DWIDTH 4 0
BBX 4 5 0 0
BITMAP
70
80
60
10
E0
ENDCHAR
STARTCHAR E074
ENCODING 57460
SWIDTH 327 0
DWIDTH 4 0
BBX 4 7 0 0
BITMAP
40
40
E0
40
40
50
20
ENDCHAR
STARTCHAR E075
ENCODING 57461
SWIDTH 327 0
DWIDTH 4 0
BBX 4 5 0 0
BITMAP
90
90
90
B0
50
ENDCHAR
STARTCHAR E076
ENCODING 57462
SWIDTH 327 0
DWIDTH 4 0
BBX 4 5 0 0
BITMAP
90
90
90
20
40
ENDCHAR
STARTCHAR E077
ENCODING 57463
SWIDTH 327 0
DWIDTH 4 0
BBX 4 5 0 0
BITMAP
90
B0
B0
A0
50
ENDCHAR
STARTCHAR E078
ENCODING 57464
SWIDTH 327 0
DWIDTH 4 0
BBX 4 5 0 0
BITMAP
90
20
40
20
90
ENDCHAR
STARTCHAR E079
ENCODING 57465
SWIDTH 327 0
DWIDTH 4 0
BBX 4 6 0 -1
BITMAP
90
90
B0
50
10
60
ENDCHAR
STARTCHAR E07A
ENCODING 57466
SWIDTH 327 0
DWIDTH 4 0
BBX 3 5 1 0
BITMAP
E0
20
40
80
E0
ENDCHAR
STARTCHAR E07B
ENCODING 57467
SWIDTH 327 0
DWIDTH 4 0
BBX 2 7 1 0
BITMAP
40
00
00
80
00
00
40
ENDCHAR
STARTCHAR E07C
ENCODING 57468
SWIDTH 327 0
DWIDTH 4 0
BBX 1 7 2 0
BITMAP
80
80
80
00
80
80
80
ENDCHAR
STARTCHAR E07D
ENCODING 57469
SWIDTH 327 0
DWIDTH 4 0
BBX 2 7 1 0
BITMAP
80
40
40
40
40
40
80
ENDCHAR
STARTCHAR E07E
ENCODING 57470
SWIDTH 327 0
DWIDTH 4 0
BBX 4 3 0 4
BITMAP
40
A0
10
ENDCHAR
STARTCHAR E07F
ENCODING 57471
SWIDTH 327 0
DWIDTH 4 0
BBX 3 7 1 0
BITMAP
40
40
E0
40
40
00
E0
ENDCHAR
STARTCHAR E080
ENCODING 57472
SWIDTH 327 0
DWIDTH 4 0
BBX 0 0 0 0
BITMAP
ENDCHAR
STARTCHAR E081
ENCODING 57473
SWIDTH 327 0
DWIDTH 4 0
BBX 2 4 0 3
BITMAP
C0
C0
C0
C0
ENDCHAR
STARTCHAR E082
ENCODING 57474
SWIDTH 327 0
DWIDTH 4 0
BBX 2 4 2 3
BITMAP
C0
C0
C0
C0
ENDCHAR
STARTCHAR E083
ENCODING 57475
SWIDTH 327 0
DWIDTH 4 0
BBX 4 4 0 3
BITMAP
F0
F0
F0
F0
ENDCHAR
STARTCHAR E084
ENCODING 57476
SWIDTH 327 0
DWIDTH 4 0
BBX 2 4 0 -1
BITMAP
C0
C0
C0
C0
ENDCHAR
STARTCHAR E085
ENCODING 57477
SWIDTH 327 0
DWIDTH 4 0
BBX 2 8 0 -1
BITMAP
C0
C0
C0
C0
C0
C0
C0
C0
ENDCHAR
STARTCHAR E086
ENCODING 57478
SWIDTH 327 0
DWIDTH 4 0
BBX 4 8 0 -1
BITMAP
30
30
30
30
C0
C0
C0
C0
ENDCHAR
STARTCHAR E087
ENCODING 57479
SWIDTH 327 0
DWIDTH 4 0
BBX 4 8 0 -1
BITMAP
F0
F0
F0
F0
C0
C0
C0
C0
ENDCHAR
STARTCHAR E088
ENCODING 57480
SWIDTH 327 0
DWIDTH 4 0
BBX 2 4 2 -1
BITMAP
C0
C0
C0
C0
ENDCHAR
STARTCHAR E089
ENCODING 57481
SWIDTH 327 0
DWIDTH 4 0
BBX 4 8 0 -1
BITMAP
C0
C0
C0
C0
30
30
30
30
ENDCHAR
STARTCHAR E08A
ENCODING 57482
SWIDTH 327 0
DWIDTH 4 0
BBX 2 8 2 -1
BITMAP
C0
C0
C0
C0
C0
C0
C0
C0
ENDCHAR
STARTCHAR E08B
ENCODING 57483
SWIDTH 327 0
DWIDTH 4 0
BBX 4 8 0 -1
BITMAP
F0
F0
F0
F0
30
30
30
30
ENDCHAR
STARTCHAR E08C
ENCODING 57484
SWIDTH 327 0
DWIDTH 4 0
BBX 4 4 0 -1
BITMAP
F0
F0
F0
F0
ENDCHAR
STARTCHAR E08D
ENCODING 57485
SWIDTH 327 0
DWIDTH 4 0
BBX 4 8 0 -1
BITMAP
C0
C0
C0
C0
F0
F0
F0
F0
ENDCHAR
STARTCHAR E08E
ENCODING 57486
SWIDTH 327 0
DWIDTH 4 0
BBX 4 8 0 -1
BITMAP
30
30
30
30
F0
F0
F0
F0
ENDCHAR
STARTCHAR E08F
ENCODING 57487
SWIDTH 327 0
DWIDTH 4 0
BBX 4 8 0 -1
BITMAP
F0
F0
F0
F0
F0
F0
F0
F0
ENDCHAR
STARTCHAR E090
ENCODING 57488
SWIDTH 327 0
DWIDTH 4 0
BBX 2 4 0 -5
BITMAP
C0
C0
C0
C0
ENDCHAR
STARTCHAR E091
ENCODING 57489
SWIDTH 327 0
DWIDTH 4 0
BBX 2 12 0 -5
BITMAP
C0
C0
C0
C0
00
00
00
00
C0
C0
C0
C0
ENDCHAR
STARTCHAR E092
ENCODING 57490
SWIDTH 327 0
DWIDTH 4 0
BBX 4 12 0 -5
BITMAP
30
30
30
30
00
00
00
00
C0
C0
C0
C0
ENDCHAR
STARTCHAR E093
ENCODING 57491
SWIDTH 327 0
DWIDTH 4 0
BBX 4 12 0 -5
BITMAP
F0
F0
F0
F0
00
00
00
00
C0
C0
C0
C0
ENDCHAR
STARTCHAR E094
ENCODING 57492
SWIDTH 327 0
DWIDTH 4 0
BBX 2 8 0 -5
BITMAP
C0
C0
C0
C0
C0
C0
C0
C0
ENDCHAR
STARTCHAR E095
ENCODING 57493
SWIDTH 327 0
DWIDTH 4 0
BBX 2 12 0 -5
BITMAP
C0
C0
C0
C0
C0
C0
C0
C0
C0
C0
C0
C0
ENDCHAR
STARTCHAR E096
ENCODING 57494
SWIDTH 327 0
DWIDTH 4 0
BBX 4 12 0 -5
BITMAP
30
30
30
30
C0
C0
C0
C0
C0
C0
C0
C0
ENDCHAR
STARTCHAR E097
ENCODING 57495
SWIDTH 327 0
DWIDTH 4 0
BBX 4 12 0 -5
BITMAP
F0
F0
F0
F0
C0
C0
C0
C0
C0
C0
C0
C0
ENDCHAR
STARTCHAR E098
ENCODING 57496
SWIDTH 327 0
DWIDTH 4 0
BBX 4 8 0 -5
BITMAP
30
30
30
30
C0
C0
C0
C0
ENDCHAR
STARTCHAR E099
ENCODING 57497
SWIDTH 327 0
DWIDTH 4 0
BBX 4 12 0 -5
BITMAP
C0
C0
C0
C0
30
30
30
30
C0
C0
C0
C0
ENDCHAR
STARTCHAR E09A
ENCODING 57498
SWIDTH 327 0
DWIDTH 4 0
BBX 4 12 0 -5
BITMAP
30
30
30
30
30
30
30
30
C0
C0
C0
C0
ENDCHAR
STARTCHAR E09B
ENCODING 57499
SWIDTH 327 0
DWIDTH 4 0
BBX 4 12 0 -5
BITMAP
F0
F0
F0
F0
30
30
30
30
C0
C0
C0
C0
ENDCHAR
STARTCHAR E09C
ENCODING 57500
SWIDTH 327 0
DWIDTH 4 0
BBX 4 8 0 -5
BITMAP
F0
F0
F0
F0
C0
C0
C0
C0
ENDCHAR
STARTCHAR E09D
ENCODING 57501
SWIDTH 327 0
DWIDTH 4 0
BBX 4 12 0 -5
BITMAP
C0
C0
C0
C0
F0
F0
F0
F0
C0
C0
C0
C0
ENDCHAR
STARTCHAR E09E
ENCODING 57502
SWIDTH 327 0
DWIDTH 4 0
BBX 4 12 0 -5
BITMAP
30
30
30
30
F0
F0
F0
F0
C0
C0
C0
C0
ENDCHAR
STARTCHAR E09F
ENCODING 57503
SWIDTH 327 0
DWIDTH 4 0
BBX 4 12 0 -5
BITMAP
F0
F0
F0
F0
F0
F0
F0
F0
C0
C0
C0
C0
ENDCHAR
STARTCHAR E0A0
ENCODING 57504
SWIDTH 327 0
DWIDTH 4 0
BBX 2 4 2 -5
BITMAP
C0
C0
C0
C0
ENDCHAR
STARTCHAR E0A1
ENCODING 57505
SWIDTH 327 0
DWIDTH 4 0
BBX 4 12 0 -5
BITMAP
C0
C0
C0
C0
00
00
00
00
30
30
30
30
ENDCHAR
STARTCHAR E0A2
ENCODING 57506
SWIDTH 327 0
DWIDTH 4 0
BBX 2 12 2 -5
BITMAP
C0
C0
C0
C0
00
00
00
00
C0
C0
C0
C0
ENDCHAR
STARTCHAR E0A3
ENCODING 57507
SWIDTH 327 0
DWIDTH 4 0
BBX 4 12 0 -5
BITMAP
F0
F0
F0
F0
00
00
00
00
30
30
30
30
ENDCHAR
STARTCHAR E0A4
ENCODING 57508
SWIDTH 327 0
DWIDTH 4 0
BBX 4 8 0 -5
BITMAP
C0
C0
C0
C0
30
30
30
30
ENDCHAR
STARTCHAR E0A5
ENCODING 57509
SWIDTH 327 0
DWIDTH 4 0
BBX 4 12 0 -5
BITMAP
C0
C0
C0
C0
C0
C0
C0
C0
30
30
30
30
ENDCHAR
STARTCHAR E0A6
ENCODING 57510
SWIDTH 327 0
DWIDTH 4 0
BBX 4 12 0 -5
BITMAP
30
30
30
30
C0
C0
C0
C0
30
30
30
30
ENDCHAR
STARTCHAR E0A7
ENCODING 57511
SWIDTH 327 0
DWIDTH 4 0
BBX 4 12 0 -5
BITMAP
F0
F0
F0
F0
C0
C0
C0
C0
30
30
30
30
ENDCHAR
STARTCHAR E0A8
ENCODING 57512
SWIDTH 327 0
DWIDTH 4 0
BBX 2 8 2 -5
BITMAP
C0
C0
C0
C0
C0
C0
C0
C0
ENDCHAR
STARTCHAR E0A9
ENCODING 57513
SWIDTH 327 0
DWIDTH 4 0
BBX 4 12 0 -5
BITMAP
C0
C0
C0
C0
30
30
30
30
30
30
30
30
ENDCHAR
STARTCHAR E0AA
ENCODING 57514
SWIDTH 327 0
DWIDTH 4 0
BBX 2 12 2 -5
BITMAP
C0
C0
C0
C0
C0
C0
C0
C0
C0
C0
C0
C0
ENDCHAR
STARTCHAR E0AB
ENCODING 57515
SWIDTH 327 0
DWIDTH 4 0
BBX 4 12 0 -5
BITMAP
F0
F0
F0
F0
30
30
30
30
30
30
30
30
ENDCHAR
STARTCHAR E0AC
ENCODING 57516
SWIDTH 327 0
DWIDTH 4 0
BBX 4 8 0 -5
BITMAP
F0
F0
F0
F0
30
30
30
30
ENDCHAR
STARTCHAR E0AD
ENCODING 57517
SWIDTH 327 0
DWIDTH 4 0
BBX 4 12 0 -5
BITMAP
C0
C0
C0
C0
F0
F0
F0
F0
30
30
30
30
ENDCHAR
STARTCHAR E0AE
ENCODING 57518
SWIDTH 327 0
DWIDTH 4 0
BBX 4 12 0 -5
BITMAP
30
30
30
30
F0
F0
F0
F0
30
30
30
30
ENDCHAR
STARTCHAR E0AF
ENCODING 57519
SWIDTH 327 0
DWIDTH 4 0
BBX 4 12 0 -5
BITMAP
F0
F0
F0
F0
F0
F0
F0
F0
30
30
30
30
ENDCHAR
STARTCHAR E0B0
ENCODING 57520
SWIDTH 327 0
DWIDTH 4 0
BBX 4 4 0 -5
BITMAP
F0
F0
F0
F0
ENDCHAR
STARTCHAR E0B1
ENCODING 57521
SWIDTH 327 0
DWIDTH 4 0
BBX 4 12 0 -5
BITMAP
C0
C0
C0
C0
00
00
00
00
F0
F0
F0
F0
ENDCHAR
STARTCHAR E0B2
ENCODING 57522
SWIDTH 327 0
DWIDTH 4 0
BBX 4 12 0 -5
BITMAP
30
30
30
30
00
00
00
00
F0
F0
F0
F0
ENDCHAR
STARTCHAR E0B3
ENCODING 57523
SWIDTH 327 0
DWIDTH 4 0
BBX 4 12 0 -5
BITMAP
F0
F0
F0
F0
00
00
00
00
F0
F0
F0
F0
ENDCHAR
STARTCHAR E0B4
ENCODING 57524
SWIDTH 327 0
DWIDTH 4 0
BBX 4 8 0 -5
BITMAP
C0
C0
C0
C0
F0
F0
F0
F0
ENDCHAR
STARTCHAR E0B5
ENCODING 57525
SWIDTH 327 0
DWIDTH 4 0
BBX 4 12 0 -5
BITMAP
C0
C0
C0
C0
C0
C0
C0
C0
F0
F0
F0
F0
ENDCHAR
STARTCHAR E0B6
ENCODING 57526
SWIDTH 327 0
DWIDTH 4 0
BBX 4 12 0 -5
BITMAP
30
30
30
30
C0
C0
C0
C0
F0
F0
F0
F0
ENDCHAR
STARTCHAR E0B7
ENCODING 57527
SWIDTH 327 0
DWIDTH 4 0
BBX 4 12 0 -5
BITMAP
F0
F0
F0
F0
C0
C0
C0
C0
F0
F0
F0
F0
ENDCHAR
STARTCHAR E0B8
ENCODING 57528
SWIDTH 327 0
DWIDTH 4 0
BBX 4 8 0 -5
BITMAP
30
30
30
30
F0
F0
F0
F0
ENDCHAR
STARTCHAR E0B9
ENCODING 57529
SWIDTH 327 0
DWIDTH 4 0
BBX 4 12 0 -5
BITMAP
C0
C0
C0
C0
30
30
30
30
F0
F0
F0
F0
ENDCHAR
STARTCHAR E0BA
ENCODING 57530
SWIDTH 327 0
DWIDTH 4 0
BBX 4 12 0 -5
BITMAP
30
30
30
30
30
30
30
30
F0
F0
F0
F0
ENDCHAR
STARTCHAR E0BB
ENCODING 57531
SWIDTH 327 0
DWIDTH 4 0
BBX 4 12 0 -5
BITMAP
F0
F0
F0
F0
30
30
30
30
F0
F0
F0
F0
ENDCHAR
STARTCHAR E0BC
ENCODING 57532
SWIDTH 327 0
DWIDTH 4 0
BBX 4 8 0 -5
BITMAP
F0
F0
F0
F0
F0
F0
F0
F0
ENDCHAR
STARTCHAR E0BD
ENCODING 57533
SWIDTH 327 0
DWIDTH 4 0
BBX 4 12 0 -5
BITMAP
C0
C0
C0
C0
F0
F0
F0
F0
F0
F0
F0
F0
ENDCHAR
STARTCHAR E0BE
ENCODING 57534
SWIDTH 327 0
DWIDTH 4 0
BBX 4 12 0 -5
BITMAP
30
30
30
30
F0
F0
F0
F0
F0
F0
F0
F0
ENDCHAR
STARTCHAR E0BF
ENCODING 57535
SWIDTH 327 0
DWIDTH 4 0
BBX 4 12 0 -5
BITMAP
F0
F0
F0
F0
F0
F0
F0
F0
F0
F0
F0
F0
ENDCHAR
STARTCHAR E0C0
ENCODING 57536
SWIDTH 327 0
DWIDTH 4 0
BBX 4 8 0 -1
BITMAP
40
60
60
F0
F0
60
40
40
ENDCHAR
STARTCHAR E0C1
ENCODING 57537
SWIDTH 327 0
DWIDTH 4 0
BBX 4 6 0 0
BITMAP
60
F0
F0
60
60
40
ENDCHAR
STARTCHAR E0C2
ENCODING 57538
SWIDTH 327 0
DWIDTH 4 0
BBX 4 7 0 0
BITMAP
40
60
60
F0
60
60
40
ENDCHAR
STARTCHAR E0C3
ENCODING 57539
SWIDTH 327 0
DWIDTH 4 0
BBX 4 8 1 -1
BITMAP
60
60
40
D0
F0
D0
40
60
ENDCHAR
STARTCHAR E0C4
ENCODING 57540
SWIDTH 327 0
DWIDTH 4 0
BBX 4 8 0 -1
BITMAP
60
10
F0
90
F0
D0
10
60
ENDCHAR
STARTCHAR E0C5
ENCODING 57541
SWIDTH 327 0
DWIDTH 4 0
BBX 4 8 0 -1
BITMAP
60
10
F0
90
D0
F0
10
60
ENDCHAR
STARTCHAR E0C6
ENCODING 57542
SWIDTH 327 0
DWIDTH 4 0
BBX 2 7 1 0
BITMAP
40
00
80
00
40
40
C0
ENDCHAR
STARTCHAR E0C7
ENCODING 57543
SWIDTH 327 0
DWIDTH 4 0
BBX 2 8 1 -1
BITMAP
80
80
40
40
40
80
80
C0
ENDCHAR
STARTCHAR E0C8
ENCODING 57544
SWIDTH 327 0
DWIDTH 4 0
BBX 4 4 0 1
BITMAP
50
A0
A0
50
ENDCHAR
STARTCHAR E0C9
ENCODING 57545
SWIDTH 327 0
DWIDTH 4 0
BBX 4 8 0 -1
BITMAP
60
50
60
50
50
60
40
80
ENDCHAR
STARTCHAR E0CA
ENCODING 57546
SWIDTH 327 0
DWIDTH 4 0
BBX 4 7 1 0
BITMAP
90
20
80
40
80
80
80
ENDCHAR
STARTCHAR E0CB
ENCODING 57547
SWIDTH 327 0
DWIDTH 4 0
BBX 3 7 1 0
BITMAP
40
A0
80
40
60
A0
40
ENDCHAR
STARTCHAR E0CC
ENCODING 57548
SWIDTH 327 0
DWIDTH 4 0
BBX 3 7 1 0
BITMAP
20
40
80
E0
80
40
20
ENDCHAR
STARTCHAR E0CD
ENCODING 57549
SWIDTH 327 0
DWIDTH 4 0
BBX 3 7 1 0
BITMAP
A0
20
40
80
C0
20
40
ENDCHAR
STARTCHAR E0CE
ENCODING 57550
SWIDTH 327 0
DWIDTH 4 0
BBX 4 7 0 0
BITMAP
20
D0
50
50
10
10
10
ENDCHAR
STARTCHAR E0CF
ENCODING 57551
SWIDTH 327 0
DWIDTH 4 0
BBX 3 7 1 0
BITMAP
40
00
A0
E0
A0
00
40
ENDCHAR
STARTCHAR E0D0
ENCODING 57552
SWIDTH 327 0
DWIDTH 4 0
BBX 3 6 1 0
BITMAP
80
80
80
A0
A0
40
ENDCHAR
STARTCHAR E0D1
ENCODING 57553
SWIDTH 327 0
DWIDTH 4 0
BBX 4 7 0 0
BITMAP
80
A0
80
C0
80
B0
A0
ENDCHAR
STARTCHAR E0D2
ENCODING 57554
SWIDTH 327 0
DWIDTH 4 0
BBX 4 7 0 0
BITMAP
40
40
40
40
20
60
90
ENDCHAR
STARTCHAR E0D3
ENCODING 57555
SWIDTH 327 0
DWIDTH 4 0
BBX 3 7 1 0
BITMAP
80
C0
C0
80
E0
80
80
ENDCHAR
STARTCHAR E0D4
ENCODING 57556
SWIDTH 327 0
DWIDTH 4 0
BBX 3 5 1 0
BITMAP
A0
A0
80
C0
80
ENDCHAR
STARTCHAR E0D5
ENCODING 57557
SWIDTH 327 0
DWIDTH 4 0
BBX 3 8 1 -1
BITMAP
40
40
80
40
80
40
20
40
ENDCHAR
STARTCHAR E0D6
ENCODING 57558
SWIDTH 327 0
DWIDTH 4 0
BBX 4 6 0 0
BITMAP
40
20
90
90
20
40
ENDCHAR
STARTCHAR E0D7
ENCODING 57559
SWIDTH 327 0
DWIDTH 4 0
BBX 4 5 0 0
BITMAP
70
E0
60
60
60
ENDCHAR
STARTCHAR E0D8
ENCODING 57560
SWIDTH 327 0
DWIDTH 4 0
BBX 2 6 1 0
BITMAP
40
C0
80
C0
80
80
ENDCHAR
STARTCHAR E0D9
ENCODING 57561
SWIDTH 327 0
DWIDTH 4 0
BBX 4 4 0 1
BITMAP
70
A0
A0
40
ENDCHAR
STARTCHAR E0DA
ENCODING 57562
SWIDTH 327 0
DWIDTH 4 0
BBX 4 6 0 -1
BITMAP
70
A0
20
20
20
20
ENDCHAR
STARTCHAR E0DB
ENCODING 57563
SWIDTH 327 0
DWIDTH 4 0
BBX 4 6 0 0
BITMAP
10
C0
60
60
40
20
ENDCHAR
STARTCHAR E0DC
ENCODING 57564
SWIDTH 327 0
DWIDTH 4 0
BBX 3 7 1 0
BITMAP
40
40
E0
E0
E0
40
40
ENDCHAR
STARTCHAR E0DD
ENCODING 57565
SWIDTH 327 0
DWIDTH 4 0
BBX 4 5 1 0
BITMAP
90
60
40
60
90
ENDCHAR
STARTCHAR E0DE
ENCODING 57566
SWIDTH 327 0
DWIDTH 4 0
BBX 4 7 0 0
BITMAP
A0
70
70
60
20
20
20
ENDCHAR
STARTCHAR E0DF
ENCODING 57567
SWIDTH 327 0
DWIDTH 4 0
BBX 4 5 0 0
BITMAP
50
90
B0
A0
50
ENDCHAR
STARTCHAR E0E0
ENCODING 57568
SWIDTH 327 0
DWIDTH 4 0
BBX 4 7 0 0
BITMAP
60
50
90
90
D0
50
D0
ENDCHAR
STARTCHAR E0E1
ENCODING 57569
SWIDTH 327 0
DWIDTH 4 0
BBX 4 7 0 0
BITMAP
30
40
40
40
C0
40
40
ENDCHAR
STARTCHAR E0E2
ENCODING 57570
SWIDTH 327 0
DWIDTH 4 0
BBX 3 5 1 1
BITMAP
40
00
E0
00
40
ENDCHAR
STARTCHAR E0E3
ENCODING 57571
SWIDTH 327 0
DWIDTH 4 0
BBX 3 7 1 0
BITMAP
E0
80
80
60
80
80
E0
ENDCHAR
STARTCHAR E0E4
ENCODING 57572
SWIDTH 327 0
DWIDTH 4 0
BBX 4 5 0 1
BITMAP
50
A0
00
50
A0
ENDCHAR
STARTCHAR E0E5
ENCODING 57573
SWIDTH 327 0
DWIDTH 4 0
BBX 4 4 0 1
BITMAP
20
60
90
F0
ENDCHAR
STARTCHAR E0E6
ENCODING 57574
SWIDTH 327 0
DWIDTH 4 0
BBX 2 7 1 0
BITMAP
40
80
00
40
40
00
80
ENDCHAR
STARTCHAR E0E7
ENCODING 57575
SWIDTH 327 0
DWIDTH 4 0
BBX 4 7 0 0
BITMAP
10
10
F0
20
F0
80
80
ENDCHAR
STARTCHAR E0E8
ENCODING 57576
SWIDTH 327 0
DWIDTH 4 0
BBX 3 6 1 1
BITMAP
40
40
E0
80
40
40
ENDCHAR
STARTCHAR E0E9
ENCODING 57577
SWIDTH 327 0
DWIDTH 4 0
BBX 4 7 0 0
BITMAP
70
D0
60
20
50
40
90
ENDCHAR
STARTCHAR E0EA
ENCODING 57578
SWIDTH 327 0
DWIDTH 4 0
BBX 4 8 0 -1
BITMAP
60
50
90
90
F0
50
50
D0
ENDCHAR
STARTCHAR E0EB
ENCODING 57579
SWIDTH 327 0
DWIDTH 4 0
BBX 4 4 0 1
BITMAP
50
B0
A0
50
ENDCHAR
STARTCHAR E0EC
ENCODING 57580
SWIDTH 327 0
DWIDTH 4 0
BBX 4 6 0 0
BITMAP
10
00
A0
80
C0
80
ENDCHAR
STARTCHAR E0ED
ENCODING 57581
SWIDTH 327 0
DWIDTH 4 0
BBX 3 7 1 0
BITMAP
60
80
40
A0
40
20
C0
ENDCHAR
STARTCHAR E0EE
ENCODING 57582
SWIDTH 327 0
DWIDTH 4 0
BBX 4 7 0 0
BITMAP
50
C0
70
40
70
C0
50
ENDCHAR
STARTCHAR E0EF
ENCODING 57583
SWIDTH 327 0
DWIDTH 4 0
BBX 4 8 0 -1
BITMAP
60
10
B0
D0
D0
B0
10
60
ENDCHAR
STARTCHAR E0F0
ENCODING 57584
SWIDTH 327 0
DWIDTH 4 0
BBX 4 7 0 0
BITMAP
90
20
40
20
40
20
90
ENDCHAR
STARTCHAR E0F1
ENCODING 57585
SWIDTH 327 0
DWIDTH 4 0
BBX 4 8 0 -1
BITMAP
70
B0
B0
70
30
30
30
30
ENDCHAR
STARTCHAR E0F2
ENCODING 57586
SWIDTH 327 0
DWIDTH 4 0
BBX 3 7 1 0
BITMAP
40
40
E0
C0
E0
40
40
ENDCHAR
STARTCHAR E0F3
ENCODING 57587
SWIDTH 327 0
DWIDTH 4 0
BBX 4 8 0 -1
BITMAP
60
70
F0
D0
F0
F0
50
60
ENDCHAR
STARTCHAR E0F4
ENCODING 57588
SWIDTH 327 0
DWIDTH 4 0
BBX 4 8 0 -1
BITMAP
B0
C0
D0
D0
E0
F0
C0
B0
ENDCHAR
STARTCHAR E0F5
ENCODING 57589
SWIDTH 327 0
DWIDTH 4 0
BBX 4 8 0 -1
BITMAP
F0
20
10
E0
10
E0
20
E0
ENDCHAR
STARTCHAR E0F6
ENCODING 57590
SWIDTH 327 0
DWIDTH 4 0
BBX 4 3 0 4
BITMAP
E0
10
E0
ENDCHAR
STARTCHAR E0F7
ENCODING 57591
SWIDTH 327 0
DWIDTH 4 0
BBX 4 7 0 0
BITMAP
E0
A0
A0
E0
B0
80
B0
ENDCHAR
STARTCHAR E0F8
ENCODING 57592
SWIDTH 327 0
DWIDTH 4 0
BBX 4 8 0 -1
BITMAP
40
90
A0
60
10
70
20
90
ENDCHAR
STARTCHAR E0F9
ENCODING 57593
SWIDTH 327 0
DWIDTH 4 0
BBX 4 7 0 0
BITMAP
30
10
30
40
C0
80
40
ENDCHAR
STARTCHAR E0FA
ENCODING 57594
SWIDTH 327 0
DWIDTH 4 0
BBX 3 8 1 -1
BITMAP
40
A0
A0
A0
40
40
40
40
ENDCHAR
STARTCHAR E0FB
ENCODING 57595
SWIDTH 327 0
DWIDTH 4 0
BBX 2 4 2 3
BITMAP
C0
80
80
C0
ENDCHAR
STARTCHAR E0FC
ENCODING 57596
SWIDTH 327 0
DWIDTH 4 0
BBX 4 8 0 -1
BITMAP
F0
D0
B0
D0
F0
F0
F0
F0
ENDCHAR
STARTCHAR E0FD
ENCODING 57597
SWIDTH 327 0
DWIDTH 4 0
BBX 3 8 1 -1
BITMAP
40
00
40
40
E0
40
00
A0
ENDCHAR
STARTCHAR E0FE
ENCODING 57598
SWIDTH 327 0
DWIDTH 4 0
BBX 3 8 1 -1
BITMAP
40
C0
40
40
E0
C0
E0
C0
ENDCHAR
STARTCHAR E0FF
ENCODING 57599
SWIDTH 327 0
DWIDTH 4 0
BBX 3 8 1 -1
BITMAP
40
00
A0
A0
A0
E0
A0
A0
ENDCHAR
STARTCHAR E100
ENCODING 57600
SWIDTH 327 0
DWIDTH 4 0
BBX 3 7 1 0
BITMAP
A0
00
40
E0
40
E0
40
ENDCHAR
STARTCHAR E101
ENCODING 57601
SWIDTH 327 0
DWIDTH 4 0
BBX 2 3 0 0
BITMAP
40
80
40
ENDCHAR
STARTCHAR E102
ENCODING 57602
SWIDTH 327 0
DWIDTH 4 0
BBX 3 5 1 2
BITMAP
E0
80
80
80
80
ENDCHAR
STARTCHAR E103
ENCODING 57603
SWIDTH 327 0
DWIDTH 4 0
BBX 3 5 0 0
BITMAP
20
20
20
20
E0
ENDCHAR
STARTCHAR E104
ENCODING 57604
SWIDTH 327 0
DWIDTH 4 0
BBX 3 4 0 0
BITMAP
80
40
40
20
ENDCHAR
STARTCHAR E105
ENCODING 57605
SWIDTH 327 0
DWIDTH 4 0
BBX 1 1 1 3
BITMAP
80
ENDCHAR
STARTCHAR E106
ENCODING 57606
SWIDTH 327 0
DWIDTH 4 0
BBX 2 5 1 0
BITMAP
C0
40
C0
40
80
ENDCHAR
STARTCHAR E107
ENCODING 57607
SWIDTH 327 0
DWIDTH 4 0
BBX 3 5 1 0
BITMAP
E0
20
40
40
80
ENDCHAR
STARTCHAR E108
ENCODING 57608
SWIDTH 327 0
DWIDTH 4 0
BBX 2 4 1 1
BITMAP
40
40
C0
40
ENDCHAR
STARTCHAR E109
ENCODING 57609
SWIDTH 327 0
DWIDTH 4 0
BBX 3 4 1 0
BITMAP
40
E0
A0
20
ENDCHAR
STARTCHAR E10A
ENCODING 57610
SWIDTH 327 0
DWIDTH 4 0
BBX 3 4 1 0
BITMAP
40
40
40
E0
ENDCHAR
STARTCHAR E10B
ENCODING 57611
SWIDTH 327 0
DWIDTH 4 0
BBX 2 5 1 0
BITMAP
40
C0
40
C0
40
ENDCHAR
STARTCHAR E10C
ENCODING 57612
SWIDTH 327 0
DWIDTH 4 0
BBX 3 5 1 0
BITMAP
80
E0
A0
80
80
ENDCHAR
STARTCHAR E10D
ENCODING 57613
SWIDTH 327 0
DWIDTH 4 0
BBX 3 4 1 0
BITMAP
40
40
40
E0
ENDCHAR
STARTCHAR E10E
ENCODING 57614
SWIDTH 327 0
DWIDTH 4 0
BBX 3 5 1 0
BITMAP
E0
20
E0
20
E0
ENDCHAR
STARTCHAR E10F
ENCODING 57615
SWIDTH 327 0
DWIDTH 4 0
BBX 3 5 1 0
BITMAP
E0
E0
A0
00
40
ENDCHAR
STARTCHAR E110
ENCODING 57616
SWIDTH 327 0
DWIDTH 4 0
BBX 3 1 1 3
BITMAP
E0
ENDCHAR
STARTCHAR E111
ENCODING 57617
SWIDTH 327 0
DWIDTH 4 0
BBX 4 7 0 0
BITMAP
F0
10
00
20
40
00
40
ENDCHAR
STARTCHAR E112
ENCODING 57618
SWIDTH 327 0
DWIDTH 4 0
BBX 3 7 1 0
BITMAP
20
00
40
40
C0
40
40
ENDCHAR
STARTCHAR E113
ENCODING 57619
SWIDTH 327 0
DWIDTH 4 0
BBX 3 6 1 0
BITMAP
40
E0
A0
A0
00
40
ENDCHAR
STARTCHAR E114
ENCODING 57620
SWIDTH 327 0
DWIDTH 4 0
BBX 3 7 1 0
BITMAP
E0
40
40
40
40
40
E0
ENDCHAR
STARTCHAR E115
ENCODING 57621
SWIDTH 327 0
DWIDTH 4 0
BBX 3 7 1 0
BITMAP
40
E0
40
40
C0
40
40
ENDCHAR
STARTCHAR E116
ENCODING 57622
SWIDTH 327 0
DWIDTH 4 0
BBX 4 7 0 0
BITMAP
40
F0
50
50
50
10
B0
ENDCHAR
STARTCHAR E117
ENCODING 57623
SWIDTH 327 0
DWIDTH 4 0
BBX 3 7 1 0
BITMAP
40
40
40
E0
40
40
40
ENDCHAR
STARTCHAR E118
ENCODING 57624
SWIDTH 327 0
DWIDTH 4 0
BBX 4 7 0 0
BITMAP
70
50
50
90
20
20
40
ENDCHAR
STARTCHAR E119
ENCODING 57625
SWIDTH 327 0
DWIDTH 4 0
BBX 4 7 0 0
BITMAP
40
40
70
60
A0
20
40
ENDCHAR
STARTCHAR E11A
ENCODING 57626
SWIDTH 327 0
DWIDTH 4 0
BBX 4 7 0 0
BITMAP
F0
10
10
10
10
10
F0
ENDCHAR
STARTCHAR E11B
ENCODING 57627
SWIDTH 327 0
DWIDTH 4 0
BBX 3 7 1 0
BITMAP
A0
E0
A0
A0
20
40
80
ENDCHAR
STARTCHAR E11C
ENCODING 57628
SWIDTH 327 0
DWIDTH 4 0
BBX 4 7 0 0
BITMAP
60
10
D0
10
10
60
60
ENDCHAR
STARTCHAR E11D
ENCODING 57629
SWIDTH 327 0
DWIDTH 4 0
BBX 4 7 0 0
BITMAP
F0
10
20
20
60
40
90
ENDCHAR
STARTCHAR E11E
ENCODING 57630
SWIDTH 327 0
DWIDTH 4 0
BBX 4 7 0 0
BITMAP
40
F0
50
60
40
50
60
ENDCHAR
STARTCHAR E11F
ENCODING 57631
SWIDTH 327 0
DWIDTH 4 0
BBX 4 7 0 0
BITMAP
90
50
50
00
20
40
40
ENDCHAR
STARTCHAR E120
ENCODING 57632
SWIDTH 327 0
DWIDTH 4 0
BBX 4 7 0 0
BITMAP
F0
90
90
30
20
20
40
ENDCHAR
STARTCHAR E121
ENCODING 57633
SWIDTH 327 0
DWIDTH 4 0
BBX 4 7 0 0
BITMAP
50
E0
40
70
40
00
40
ENDCHAR
STARTCHAR E122
ENCODING 57634
SWIDTH 327 0
DWIDTH 4 0
BBX 3 7 1 0
BITMAP
E0
00
E0
20
20
40
80
ENDCHAR
STARTCHAR E123
ENCODING 57635
SWIDTH 327 0
DWIDTH 4 0
BBX 3 7 1 0
BITMAP
40
00
E0
40
40
00
80
ENDCHAR
STARTCHAR E124
ENCODING 57636
SWIDTH 327 0
DWIDTH 4 0
BBX 3 7 1 0
BITMAP
80
80
C0
80
A0
80
80
ENDCHAR
STARTCHAR E125
ENCODING 57637
SWIDTH 327 0
DWIDTH 4 0
BBX 3 7 1 0
BITMAP
40
E0
40
40
40
00
80
ENDCHAR
STARTCHAR E126
ENCODING 57638
SWIDTH 327 0
DWIDTH 4 0
BBX 3 7 1 0
BITMAP
40
00
00
00
00
00
E0
ENDCHAR
STARTCHAR E127
ENCODING 57639
SWIDTH 327 0
DWIDTH 4 0
BBX 4 7 0 0
BITMAP
F0
10
10
00
20
00
50
ENDCHAR
STARTCHAR E128
ENCODING 57640
SWIDTH 327 0
DWIDTH 4 0
BBX 4 7 0 0
BITMAP
20
F0
10
20
20
30
60
ENDCHAR
STARTCHAR E129
ENCODING 57641
SWIDTH 327 0
DWIDTH 4 0
BBX 4 7 0 0
BITMAP
10
10
20
20
40
40
80
ENDCHAR
STARTCHAR E12A
ENCODING 57642
SWIDTH 327 0
DWIDTH 4 0
BBX 3 7 1 0
BITMAP
40
00
60
60
60
20
A0
ENDCHAR
STARTCHAR E12B
ENCODING 57643
SWIDTH 327 0
DWIDTH 4 0
BBX 4 7 0 0
BITMAP
80
80
F0
80
80
90
60
ENDCHAR
STARTCHAR E12C
ENCODING 57644
SWIDTH 327 0
DWIDTH 4 0
BBX 4 7 0 0
BITMAP
F0
10
10
00
20
00
40
ENDCHAR
STARTCHAR E12D
ENCODING 57645
SWIDTH 327 0
DWIDTH 4 0
BBX 4 4 0 1
BITMAP
40
60
80
10
ENDCHAR
STARTCHAR E12E
ENCODING 57646
SWIDTH 327 0
DWIDTH 4 0
BBX 3 7 1 0
BITMAP
40
E0
40
E0
E0
E0
40
ENDCHAR
STARTCHAR E12F
ENCODING 57647
SWIDTH 327 0
DWIDTH 4 0
BBX 4 7 0 0
BITMAP
F0
10
10
60
20
20
10
ENDCHAR
STARTCHAR E130
ENCODING 57648
SWIDTH 327 0
DWIDTH 4 0
BBX 4 7 0 0
BITMAP
80
60
90
60
90
60
10
ENDCHAR
STARTCHAR E131
ENCODING 57649
SWIDTH 327 0
DWIDTH 4 0
BBX 4 7 0 0
BITMAP
20
20
40
40
A0
80
F0
ENDCHAR
STARTCHAR E132
ENCODING 57650
SWIDTH 327 0
DWIDTH 4 0
BBX 4 7 0 0
BITMAP
10
50
60
20
60
40
80
ENDCHAR
STARTCHAR E133
ENCODING 57651
SWIDTH 327 0
DWIDTH 4 0
BBX 3 7 1 0
BITMAP
E0
80
E0
80
80
20
60
ENDCHAR
STARTCHAR E134
ENCODING 57652
SWIDTH 327 0
DWIDTH 4 0
BBX 4 7 0 0
BITMAP
40
F0
50
60
40
40
40
ENDCHAR
STARTCHAR E135
ENCODING 57653
SWIDTH 327 0
DWIDTH 4 0
BBX 3 7 1 0
BITMAP
C0
40
40
40
40
80
E0
ENDCHAR
STARTCHAR E136
ENCODING 57654
SWIDTH 327 0
DWIDTH 4 0
BBX 4 7 0 0
BITMAP
F0
10
10
70
10
10
F0
ENDCHAR
STARTCHAR E137
ENCODING 57655
SWIDTH 327 0
DWIDTH 4 0
BBX 3 6 1 0
BITMAP
E0
E0
A0
20
00
40
ENDCHAR
STARTCHAR E138
ENCODING 57656
SWIDTH 327 0
DWIDTH 4 0
BBX 4 7 0 0
BITMAP
90
90
90
90
A0
20
40
ENDCHAR
STARTCHAR E139
ENCODING 57657
SWIDTH 327 0
DWIDTH 4 0
BBX 4 7 0 0
BITMAP
C0
C0
C0
D0
D0
A0
A0
ENDCHAR
STARTCHAR E13A
ENCODING 57658
SWIDTH 327 0
DWIDTH 4 0
BBX 3 7 1 0
BITMAP
80
80
80
A0
A0
80
C0
ENDCHAR
STARTCHAR E13B
ENCODING 57659
SWIDTH 327 0
DWIDTH 4 0
BBX 4 7 0 0
BITMAP
F0
90
90
90
90
90
F0
ENDCHAR
STARTCHAR E13C
ENCODING 57660
SWIDTH 327 0
DWIDTH 4 0
BBX 4 7 0 0
BITMAP
F0
90
90
10
20
20
40
ENDCHAR
STARTCHAR E13D
ENCODING 57661
SWIDTH 327 0
DWIDTH 4 0
BBX 4 7 0 0
BITMAP
D0
10
10
10
20
A0
C0
ENDCHAR
STARTCHAR E13E
ENCODING 57662
SWIDTH 327 0
DWIDTH 4 0
BBX 3 4 0 3
BITMAP
40
A0
40
40
ENDCHAR
STARTCHAR E13F
ENCODING 57663
SWIDTH 327 0
DWIDTH 4 0
BBX 2 3 0 4
BITMAP
40
80
40
ENDCHAR
STARTCHAR E140
ENCODING 57664
SWIDTH 327 0
DWIDTH 4 0
BBX 3 7 1 0
BITMAP
A0
00
40
E0
40
E0
40
ENDCHAR
STARTCHAR E141
ENCODING 57665
SWIDTH 327 0
DWIDTH 4 0
BBX 2 3 0 0
BITMAP
40
80
40
ENDCHAR
STARTCHAR E142
ENCODING 57666
SWIDTH 327 0
DWIDTH 4 0
BBX 2 4 1 3
BITMAP
C0
80
80
80
ENDCHAR
STARTCHAR E143
ENCODING 57667
SWIDTH 327 0
DWIDTH 4 0
BBX 2 4 1 0
BITMAP
40
40
40
C0
ENDCHAR
STARTCHAR E144
ENCODING 57668
SWIDTH 327 0
DWIDTH 4 0
BBX 1 2 1 0
BITMAP
80
80
ENDCHAR
STARTCHAR E145
ENCODING 57669
SWIDTH 327 0
DWIDTH 4 0
BBX 1 2 2 2
BITMAP
80
80
ENDCHAR
STARTCHAR E146
ENCODING 57670
SWIDTH 327 0
DWIDTH 4 0
BBX 3 6 1 0
BITMAP
E0
20
E0
20
00
40
ENDCHAR
STARTCHAR E147
ENCODING 57671
SWIDTH 327 0
DWIDTH 4 0
BBX 3 5 1 0
BITMAP
E0
20
40
40
80
ENDCHAR
STARTCHAR E148
ENCODING 57672
SWIDTH 327 0
DWIDTH 4 0
BBX 3 4 1 0
BITMAP
20
00
40
C0
ENDCHAR
STARTCHAR E149
ENCODING 57673
SWIDTH 327 0
DWIDTH 4 0
BBX 3 5 1 0
BITMAP
40
E0
A0
00
40
ENDCHAR
STARTCHAR E14A
ENCODING 57674
SWIDTH 327 0
DWIDTH 4 0
BBX 3 4 1 0
BITMAP
E0
40
40
E0
ENDCHAR
STARTCHAR E14B
ENCODING 57675
SWIDTH 327 0
DWIDTH 4 0
BBX 3 5 1 0
BITMAP
40
E0
40
40
C0
ENDCHAR
STARTCHAR E14C
ENCODING 57676
SWIDTH 327 0
DWIDTH 4 0
BBX 3 5 1 0
BITMAP
80
E0
A0
C0
80
ENDCHAR
STARTCHAR E14D
ENCODING 57677
SWIDTH 327 0
DWIDTH 4 0
BBX 3 4 1 0
BITMAP
40
40
40
E0
ENDCHAR
STARTCHAR E14E
ENCODING 57678
SWIDTH 327 0
DWIDTH 4 0
BBX 2 5 1 0
BITMAP
C0
40
C0
40
C0
ENDCHAR
STARTCHAR E14F
ENCODING 57679
SWIDTH 327 0
DWIDTH 4 0
BBX 3 4 1 0
BITMAP
E0
E0
20
40
ENDCHAR
STARTCHAR E150
ENCODING 57680
SWIDTH 327 0
DWIDTH 4 0
BBX 3 1 1 3
BITMAP
E0
ENDCHAR
STARTCHAR E151
ENCODING 57681
SWIDTH 327 0
DWIDTH 4 0
BBX 4 6 0 0
BITMAP
F0
10
10
20
00
40
ENDCHAR
STARTCHAR E152
ENCODING 57682
SWIDTH 327 0
DWIDTH 4 0
BBX 4 7 0 0
BITMAP
10
00
20
60
60
A0
20
ENDCHAR
STARTCHAR E153
ENCODING 57683
SWIDTH 327 0
DWIDTH 4 0
BBX 4 7 0 0
BITMAP
40
F0
90
10
10
00
20
ENDCHAR
STARTCHAR E154
ENCODING 57684
SWIDTH 327 0
DWIDTH 4 0
BBX 3 6 1 0
BITMAP
E0
40
40
40
40
E0
ENDCHAR
STARTCHAR E155
ENCODING 57685
SWIDTH 327 0
DWIDTH 4 0
BBX 3 7 1 0
BITMAP
40
E0
40
40
C0
40
40
ENDCHAR
STARTCHAR E156
ENCODING 57686
SWIDTH 327 0
DWIDTH 4 0
BBX 4 7 0 0
BITMAP
40
F0
50
50
50
10
A0
ENDCHAR
STARTCHAR E157
ENCODING 57687
SWIDTH 327 0
DWIDTH 4 0
BBX 4 7 0 0
BITMAP
40
F0
40
F0
40
40
40
ENDCHAR
STARTCHAR E158
ENCODING 57688
SWIDTH 327 0
DWIDTH 4 0
BBX 4 7 0 0
BITMAP
40
70
50
90
20
20
40
ENDCHAR
STARTCHAR E159
ENCODING 57689
SWIDTH 327 0
DWIDTH 4 0
BBX 4 7 0 0
BITMAP
40
70
A0
20
20
20
40
ENDCHAR
STARTCHAR E15A
ENCODING 57690
SWIDTH 327 0
DWIDTH 4 0
BBX 4 6 0 0
BITMAP
F0
10
10
10
10
F0
ENDCHAR
STARTCHAR E15B
ENCODING 57691
SWIDTH 327 0
DWIDTH 4 0
BBX 3 7 1 0
BITMAP
A0
E0
A0
A0
20
40
80
ENDCHAR
STARTCHAR E15C
ENCODING 57692
SWIDTH 327 0
DWIDTH 4 0
BBX 3 6 1 0
BITMAP
80
20
A0
20
00
C0
ENDCHAR
STARTCHAR E15D
ENCODING 57693
SWIDTH 327 0
DWIDTH 4 0
BBX 3 6 1 0
BITMAP
E0
20
00
40
00
A0
ENDCHAR
STARTCHAR E15E
ENCODING 57694
SWIDTH 327 0
DWIDTH 4 0
BBX 4 7 1 0
BITMAP
80
E0
90
A0
80
00
60
ENDCHAR
STARTCHAR E15F
ENCODING 57695
SWIDTH 327 0
DWIDTH 4 0
BBX 4 6 0 0
BITMAP
90
50
10
20
20
40
ENDCHAR
STARTCHAR E160
ENCODING 57696
SWIDTH 327 0
DWIDTH 4 0
BBX 4 7 0 0
BITMAP
40
70
50
D0
20
20
40
ENDCHAR
STARTCHAR E161
ENCODING 57697
SWIDTH 327 0
DWIDTH 4 0
BBX 3 6 1 1
BITMAP
C0
40
E0
40
40
80
ENDCHAR
STARTCHAR E162
ENCODING 57698
SWIDTH 327 0
DWIDTH 4 0
BBX 4 6 0 0
BITMAP
D0
D0
D0
10
00
20
ENDCHAR
STARTCHAR E163
ENCODING 57699
SWIDTH 327 0
DWIDTH 4 0
BBX 3 6 1 0
BITMAP
E0
00
E0
40
40
80
ENDCHAR
STARTCHAR E164
ENCODING 57700
SWIDTH 327 0
DWIDTH 4 0
BBX 3 7 1 0
BITMAP
80
80
80
C0
80
A0
80
ENDCHAR
STARTCHAR E165
ENCODING 57701
SWIDTH 327 0
DWIDTH 4 0
BBX 3 7 1 0
BITMAP
40
40
E0
40
40
40
80
ENDCHAR
STARTCHAR E166
ENCODING 57702
SWIDTH 327 0
DWIDTH 4 0
BBX 3 6 1 0
BITMAP
E0
00
00
00
00
E0
ENDCHAR
STARTCHAR E167
ENCODING 57703
SWIDTH 327 0
DWIDTH 4 0
BBX 3 6 1 0
BITMAP
E0
20
00
40
00
A0
ENDCHAR
STARTCHAR E168
ENCODING 57704
SWIDTH 327 0
DWIDTH 4 0
BBX 3 7 1 0
BITMAP
80
E0
40
40
80
A0
80
ENDCHAR
STARTCHAR E169
ENCODING 57705
SWIDTH 327 0
DWIDTH 4 0
BBX 2 7 1 0
BITMAP
40
40
40
40
40
00
80
ENDCHAR
STARTCHAR E16A
ENCODING 57706
SWIDTH 327 0
DWIDTH 4 0
BBX 4 6 0 0
BITMAP
40
20
80
90
90
90
ENDCHAR
STARTCHAR E16B
ENCODING 57707
SWIDTH 327 0
DWIDTH 4 0
BBX 4 7 0 0
BITMAP
80
80
F0
80
80
80
70
ENDCHAR
STARTCHAR E16C
ENCODING 57708
SWIDTH 327 0
DWIDTH 4 0
BBX 3 7 1 0
BITMAP
E0
20
20
20
20
20
40
ENDCHAR
STARTCHAR E16D
ENCODING 57709
SWIDTH 327 0
DWIDTH 4 0
BBX 4 6 0 0
BITMAP
40
60
A0
10
10
10
ENDCHAR
STARTCHAR E16E
ENCODING 57710
SWIDTH 327 0
DWIDTH 4 0
BBX 4 7 0 0
BITMAP
40
F0
40
40
D0
D0
40
ENDCHAR
STARTCHAR E16F
ENCODING 57711
SWIDTH 327 0
DWIDTH 4 0
BBX 4 7 0 0
BITMAP
F0
10
10
40
20
20
20
ENDCHAR
STARTCHAR E170
ENCODING 57712
SWIDTH 327 0
DWIDTH 4 0
BBX 4 7 0 0
BITMAP
80
60
00
60
00
E0
10
ENDCHAR
STARTCHAR E171
ENCODING 57713
SWIDTH 327 0
DWIDTH 4 0
BBX 4 7 0 0
BITMAP
20
40
40
80
90
F0
10
ENDCHAR
STARTCHAR E172
ENCODING 57714
SWIDTH 327 0
DWIDTH 4 0
BBX 4 7 0 0
BITMAP
10
10
60
20
60
40
80
ENDCHAR
STARTCHAR E173
ENCODING 57715
SWIDTH 327 0
DWIDTH 4 0
BBX 3 6 1 0
BITMAP
E0
80
E0
80
80
60
ENDCHAR
STARTCHAR E174
ENCODING 57716
SWIDTH 327 0
DWIDTH 4 0
BBX 4 7 0 0
BITMAP
40
40
F0
50
60
40
40
ENDCHAR
STARTCHAR E175
ENCODING 57717
SWIDTH 327 0
DWIDTH 4 0
BBX 4 6 0 0
BITMAP
60
20
20
20
20
F0
ENDCHAR
STARTCHAR E176
ENCODING 57718
SWIDTH 327 0
DWIDTH 4 0
BBX 3 7 1 0
BITMAP
E0
20
20
E0
20
20
E0
ENDCHAR
STARTCHAR E177
ENCODING 57719
SWIDTH 327 0
DWIDTH 4 0
BBX 3 7 1 0
BITMAP
C0
00
E0
20
20
00
40
ENDCHAR
STARTCHAR E178
ENCODING 57720
SWIDTH 327 0
DWIDTH 4 0
BBX 3 7 0 0
BITMAP
A0
A0
A0
A0
20
20
40
ENDCHAR
STARTCHAR E179
ENCODING 57721
SWIDTH 327 0
DWIDTH 4 0
BBX 4 7 0 0
BITMAP
40
C0
C0
C0
D0
A0
A0
ENDCHAR
STARTCHAR E17A
ENCODING 57722
SWIDTH 327 0
DWIDTH 4 0
BBX 3 7 0 0
BITMAP
80
80
80
80
A0
80
C0
ENDCHAR
STARTCHAR E17B
ENCODING 57723
SWIDTH 327 0
DWIDTH 4 0
BBX 4 6 0 0
BITMAP
F0
90
90
90
90
F0
ENDCHAR
STARTCHAR E17C
ENCODING 57724
SWIDTH 327 0
DWIDTH 4 0
BBX 4 6 0 0
BITMAP
F0
90
90
10
00
20
ENDCHAR
STARTCHAR E17D
ENCODING 57725
SWIDTH 327 0
DWIDTH 4 0
BBX 3 6 1 0
BITMAP
80
00
20
20
20
C0
ENDCHAR
STARTCHAR E17E
ENCODING 57726
SWIDTH 327 0
DWIDTH 4 0
BBX 3 3 0 4
BITMAP
40
A0
40
ENDCHAR
STARTCHAR E17F
ENCODING 57727
SWIDTH 327 0
DWIDTH 4 0
BBX 2 3 0 4
BITMAP
40
80
40
ENDCHAR
ENDFONT
